<svg width="64" height="64" viewBox="0 0 64 64" fill="none" xmlns="http://www.w3.org/2000/svg">
<path d="M51.4047 56.9233C51.4235 56.9471 51.4575 56.951 51.4808 56.9318C55.2397 53.8582 58.2539 49.9475 60.2907 45.5016C62.3352 41.039 63.3396 36.1576 63.226 31.2367C63.1126 26.316 61.884 21.4886 59.636 17.1302C57.3965 12.788 54.2052 9.02776 50.3089 6.13971C50.2847 6.12179 50.2509 6.12723 50.2331 6.15185L49.1867 7.61626C49.1691 7.64088 49.1746 7.67534 49.1986 7.69326C52.86 10.4078 55.8589 13.9417 57.9633 18.0223C60.0767 22.1193 61.2315 26.657 61.3382 31.2824C61.445 35.908 60.5007 40.4968 58.5789 44.6916C56.6646 48.8696 53.8321 52.545 50.3 55.4339C50.2767 55.4529 50.2731 55.4877 50.2918 55.5114L51.4047 56.9233Z" fill="white"/>
<path d="M47.7417 4.48949C47.757 4.46327 47.7483 4.42949 47.7225 4.41406C43.842 2.09412 39.5168 0.647705 35.0384 0.172714C30.5422 -0.304187 25.9972 0.209348 21.7128 1.67837C17.4284 3.14738 13.5053 5.53742 10.2103 8.68578C6.92846 11.8216 4.34647 15.6364 2.63852 19.8725C2.62716 19.9007 2.64048 19.9329 2.66821 19.9444L4.31632 20.6273C4.34412 20.6388 4.37566 20.6253 4.38709 20.5971C5.99253 16.6164 8.41918 13.0315 11.5032 10.0846C14.6006 7.12517 18.2884 4.87854 22.3156 3.49767C26.3428 2.11678 30.6153 1.63406 34.8418 2.08235C39.0503 2.52873 43.1152 3.88777 46.762 6.06754C46.7879 6.08295 46.821 6.07429 46.8363 6.04807L47.7417 4.48949Z" fill="white"/>
<path d="M1.39248 23.8132C1.36355 23.8052 1.33387 23.8228 1.32624 23.8523C0.616083 26.5904 0.266455 29.4121 0.286523 32.2434C0.286741 32.2738 0.31124 32.2982 0.341179 32.2978L2.12118 32.2811C2.1511 32.2806 2.17513 32.2557 2.17492 32.2256C2.15635 29.5661 2.48472 26.9161 3.15144 24.3444C3.15908 24.3149 3.14184 24.2848 3.11291 24.277L1.39248 23.8132Z" fill="white"/>
<path d="M0.618891 36.2617C0.589239 36.2658 0.568432 36.2934 0.572459 36.3236C1.14478 40.6031 2.56337 44.7204 4.74295 48.4274C6.93172 52.1499 9.84242 55.381 13.2979 57.9241C16.7534 60.4671 20.6816 62.2692 24.8441 63.2207C28.9888 64.1682 33.2793 64.2525 37.4573 63.469C37.4868 63.4635 37.5063 63.4347 37.5008 63.405L37.1755 61.6255C37.17 61.5958 37.1417 61.5759 37.1122 61.5814C33.186 62.3174 29.1538 62.2379 25.2589 61.3474C21.3464 60.453 17.6538 58.759 14.4056 56.3686C11.1575 53.978 8.42144 50.941 6.36393 47.4415C4.31575 43.9581 2.98244 40.0891 2.44415 36.0676C2.44011 36.0374 2.41283 36.0162 2.38315 36.0203L0.618891 36.2617Z" fill="white"/>
<path d="M40.6178 62.6457C40.6262 62.675 40.6564 62.6917 40.6852 62.683C43.4326 61.8558 46.0564 60.6512 48.4834 59.1027C48.5087 59.0864 48.5165 59.0524 48.5005 59.0265L47.5519 57.4956C47.5362 57.4697 47.5026 57.462 47.4772 57.4782C45.1974 58.9326 42.7332 60.064 40.1526 60.8412C40.124 60.8496 40.1076 60.8803 40.1161 60.9095L40.6178 62.6457Z" fill="white"/>
<path d="M54.3652 47.927C45.7081 60.6147 28.57 63.7672 16.0867 54.9683C3.60327 46.1695 0.501478 28.7512 9.15872 16.0634C17.816 3.37574 34.9538 0.223259 47.4372 9.02216C59.9209 17.821 63.0226 35.2394 54.3652 47.927ZM13.2527 18.9491C6.16345 29.3386 8.70338 43.6022 18.9258 50.8074C29.1483 58.0127 43.1821 55.4312 50.2713 45.0415C57.3606 34.6518 54.8208 20.3883 44.5981 13.1831C34.3757 5.97785 20.3419 8.55931 13.2527 18.9491Z" fill="white"/>
</svg>
